<?xml version="1.0" encoding="UTF-8" standalone="no"?>
<!DOCTYPE svg PUBLIC "-//W3C//DTD SVG 1.1//EN" "http://www.w3.org/Graphics/SVG/1.1/DTD/svg11.dtd">
<svg width="100%" height="100%" viewBox="0 0 671 671" version="1.1" xmlns="http://www.w3.org/2000/svg" xmlns:xlink="http://www.w3.org/1999/xlink" xml:space="preserve" xmlns:serif="http://www.serif.com/" style="fill-rule:evenodd;clip-rule:evenodd;stroke-linejoin:round;stroke-miterlimit:2;">
    <g transform="matrix(1,0,0,1,-32.525175,-26.588486)">
        <g>
            <path d="M32.972,380.471C32.341,361.557 27.884,291.019 68.991,209.751C87.689,172.783 116.68,134.81 151.131,106.058C269.409,7.344 400.973,19.616 471.396,42.813C674.671,109.771 755.939,336.547 668.768,510.632C563.266,721.323 294.58,752.332 141.498,609.502C46.431,520.803 36.143,421.971 32.972,380.471Z" style="fill:rgb(102,102,102);"/>
            <path d="M486.497,318.043C482.253,317.381 482.039,317.397 469.891,307.045C452.846,292.519 465.955,288.911 485.027,265.094C500.985,245.164 503.206,244.769 501.338,243.701C495.738,240.5 417.993,202.572 410.73,199.029C410.26,198.8 405.78,195.809 405.682,198.528C404.881,220.751 406.119,220.747 405.729,476.5C405.706,491.208 397.486,489.388 378.501,489.271C364.507,489.185 366.66,482.619 366.66,447.5C366.66,147.486 366.513,147.329 367.87,144.705C373.181,134.432 386.14,143.294 398.538,149.425C554.804,226.701 555.892,225.85 558.339,230.58C559.581,232.982 559.743,237.79 557.036,241.139C552.214,247.104 502.226,304.919 497.443,310.451C492.221,316.49 492.198,316.78 486.497,318.043Z" style="fill:rgb(254,254,254);"/>
            <path d="M333.962,523.52C332.075,574.405 332.354,574.499 330.618,578.554C325.407,590.726 313.037,580.014 311.905,579.033C303.423,571.688 227.527,505.963 206.184,486.863C180.887,464.226 170.05,460.991 180.941,447.866C232.244,386.041 231.674,385.561 236.777,380.796C243.278,374.725 248.624,378.697 264.456,392.549C274.021,400.917 264.498,408.353 244.964,431.885C229.151,450.934 228.769,450.694 227.949,452.681C227.227,454.433 234.26,459.247 249.801,473.155C253.322,476.306 292.869,511.7 294.498,511.756C296.524,511.826 295.703,510.506 296.74,486.512C297.58,467.067 303.335,333.904 308.308,243.49C309.24,226.531 315.585,229.279 332.479,229.953C334.355,230.028 341.469,229.371 345.238,233.721C348.907,237.955 347.028,238.825 344.02,315.481C343.367,332.131 342.701,332.01 333.962,523.52Z" style="fill:rgb(254,254,254);"/>
        </g>
    </g>
</svg>
